# Blender v2.81 (sub 16) OBJ File: 'untitled.blend'
# www.blender.org
mtllib stail.mtl
o Object002.002_Mesh.005
v 0.017721 -0.025176 0.005427
v 0.017966 -0.031565 0.016792
v 0.020272 -0.040837 0.016532
v 0.024574 -0.044665 0.005115
v 0.021843 -0.017327 0.004923
v 0.024906 -0.021474 0.015242
v 0.030886 -0.022903 0.014588
v 0.036225 -0.025258 0.004591
v 0.024047 0.003809 0.004587
v 0.027139 -0.000689 0.014087
v 0.034491 -0.002343 0.013249
v 0.041536 -0.004149 0.004206
v 0.025038 0.032261 0.004335
v 0.026800 0.029660 0.013447
v 0.036831 0.020887 0.012848
v 0.044121 0.014298 0.004063
v 0.032561 0.049689 0.004068
v 0.033489 0.043386 0.012511
v 0.041556 0.032674 0.012377
v 0.047206 0.026022 0.003961
v 0.044828 0.057810 0.003967
v 0.046828 0.051682 0.012341
v 0.050162 0.036618 0.012341
v 0.052275 0.030481 0.003944
v 0.059469 0.058547 0.003946
v 0.058791 0.049242 0.012341
v 0.058797 0.035806 0.012341
v 0.058725 0.028297 0.003943
v 0.072729 0.053913 0.003943
v 0.068750 0.043847 0.012341
v 0.066200 0.030432 0.012341
v 0.064358 0.022693 0.003943
v 0.085604 0.043801 0.003943
v 0.078647 0.037254 0.012341
v 0.072029 0.023136 0.012341
v 0.066369 0.016546 0.003943
v 0.094587 0.026066 0.003943
v 0.086719 0.023932 0.012341
v 0.075229 0.015729 0.012341
v 0.067233 0.010338 0.003943
v 0.093516 0.002173 0.003943
v 0.087979 0.003846 0.012341
v 0.074900 0.005435 0.012341
v 0.067339 0.002619 0.003943
v 0.081403 -0.020559 0.003510
v 0.076568 -0.017763 0.010996
v 0.070439 -0.009683 0.010996
v 0.064823 -0.008455 0.003511
v 0.069756 -0.035476 0.002980
v 0.065476 -0.031219 0.009346
v 0.061178 -0.023812 0.009346
v 0.058199 -0.021743 0.002987
v 0.061397 -0.044732 0.002529
v 0.057319 -0.040596 0.007942
v 0.053624 -0.033706 0.007955
v 0.051923 -0.033460 0.002562
v 0.055835 -0.051716 0.002176
v 0.052637 -0.046841 0.006845
v 0.046941 -0.043825 0.007064
v 0.045719 -0.043280 0.002267
v 0.048662 -0.061015 0.001662
v 0.046966 -0.056549 0.005506
v 0.043042 -0.051192 0.005730
v 0.040774 -0.051805 0.001752
v 0.039159 -0.068226 0.000924
v 0.036752 -0.066381 0.001691
v 0.034724 -0.063585 0.001742
v 0.034279 -0.061645 0.000975
v 0.017721 -0.025176 -0.005432
v 0.017966 -0.031565 -0.016591
v 0.020272 -0.040837 -0.016343
v 0.024574 -0.044665 -0.005130
v 0.021843 -0.017327 -0.004945
v 0.024906 -0.021474 -0.015121
v 0.030886 -0.022903 -0.014503
v 0.036225 -0.025258 -0.004633
v 0.024047 0.003809 -0.004612
v 0.027139 -0.000689 -0.013966
v 0.034491 -0.002343 -0.013189
v 0.041536 -0.004149 -0.004259
v 0.025038 0.032261 -0.004378
v 0.026800 0.029660 -0.013336
v 0.036831 0.020887 -0.012804
v 0.044121 0.014298 -0.004124
v 0.032561 0.049689 -0.004157
v 0.033489 0.043386 -0.012605
v 0.041556 0.032674 -0.012447
v 0.047206 0.026022 -0.004048
v 0.044828 0.057810 -0.004062
v 0.046828 0.051682 -0.012436
v 0.050162 0.036618 -0.012436
v 0.052275 0.030481 -0.004038
v 0.059469 0.058547 -0.004040
v 0.058791 0.049242 -0.012436
v 0.058797 0.035806 -0.012436
v 0.058725 0.028297 -0.004038
v 0.072729 0.053913 -0.004038
v 0.068750 0.043847 -0.012436
v 0.066200 0.030432 -0.012436
v 0.064358 0.022693 -0.004038
v 0.085604 0.043801 -0.004038
v 0.078647 0.037254 -0.012436
v 0.072029 0.023136 -0.012436
v 0.066369 0.016546 -0.004038
v 0.094587 0.026066 -0.004038
v 0.086719 0.023932 -0.012436
v 0.075229 0.015729 -0.012436
v 0.067233 0.010338 -0.004038
v 0.093516 0.002173 -0.004038
v 0.087979 0.003846 -0.012436
v 0.074900 0.005435 -0.012436
v 0.067339 0.002619 -0.004038
v 0.081403 -0.020559 -0.003603
v 0.076568 -0.017763 -0.011089
v 0.070439 -0.009683 -0.011089
v 0.064823 -0.008455 -0.003604
v 0.069756 -0.035476 -0.003070
v 0.065476 -0.031219 -0.009436
v 0.061178 -0.023812 -0.009436
v 0.058199 -0.021743 -0.003077
v 0.061397 -0.044732 -0.002616
v 0.057319 -0.040596 -0.008030
v 0.053624 -0.033706 -0.008035
v 0.051923 -0.033460 -0.002645
v 0.055835 -0.051716 -0.002259
v 0.052637 -0.046841 -0.006921
v 0.046941 -0.043825 -0.007111
v 0.045719 -0.043280 -0.002340
v 0.048662 -0.061015 -0.001740
v 0.046966 -0.056549 -0.005569
v 0.043042 -0.051192 -0.005772
v 0.040774 -0.051805 -0.001822
v 0.039159 -0.068226 -0.001004
v 0.036752 -0.066381 -0.001767
v 0.034724 -0.063585 -0.001812
v 0.034279 -0.061645 -0.001050
vt 0.446931 0.665957
vt 0.437178 0.678289
vt 0.421839 0.653159
vt 0.426659 0.636281
vt 0.464451 0.661771
vt 0.433413 0.609036
vt 0.479405 0.654995
vt 0.445215 0.597951
vt 0.453406 0.727054
vt 0.443628 0.740406
vt 0.474945 0.722209
vt 0.494977 0.717032
vt 0.452364 0.816247
vt 0.446519 0.824019
vt 0.481790 0.790480
vt 0.502561 0.771245
vt 0.471946 0.856599
vt 0.468602 0.875242
vt 0.495635 0.825125
vt 0.511616 0.805700
vt 0.511120 0.880986
vt 0.504633 0.899112
vt 0.520914 0.836718
vt 0.525531 0.819295
vt 0.546265 0.873821
vt 0.547643 0.901282
vt 0.546282 0.834337
vt 0.545944 0.816898
vt 0.575521 0.857969
vt 0.586597 0.887670
vt 0.568030 0.818547
vt 0.562004 0.795923
vt 0.604596 0.838599
vt 0.624420 0.857958
vt 0.585154 0.797109
vt 0.567911 0.777861
vt 0.628310 0.799453
vt 0.650809 0.805846
vt 0.594556 0.775343
vt 0.570449 0.759619
vt 0.632013 0.740428
vt 0.647664 0.735633
vt 0.593588 0.745091
vt 0.570761 0.736935
vt 0.598390 0.676942
vt 0.612045 0.668833
vt 0.580384 0.700683
vt 0.563337 0.704396
vt 0.565686 0.637421
vt 0.577791 0.625002
vt 0.553056 0.659183
vt 0.543842 0.665355
vt 0.541618 0.609880
vt 0.553200 0.597806
vt 0.530765 0.630125
vt 0.525372 0.630924
vt 0.527785 0.591543
vt 0.536837 0.577284
vt 0.511066 0.600400
vt 0.507124 0.602071
vt 0.511024 0.563033
vt 0.515727 0.549965
vt 0.499515 0.578768
vt 0.492558 0.577024
vt 0.480739 0.534191
vt 0.487754 0.528780
vt 0.474787 0.542405
vt 0.473423 0.548118
vt 0.244415 0.177925
vt 0.265018 0.147789
vt 0.266566 0.166929
vt 0.254300 0.190364
vt 0.226611 0.173664
vt 0.258155 0.120107
vt 0.211397 0.166692
vt 0.246135 0.108745
vt 0.237835 0.239986
vt 0.247747 0.253469
vt 0.215946 0.235054
vt 0.195575 0.229715
vt 0.238892 0.330597
vt 0.244807 0.338414
vt 0.208991 0.304411
vt 0.187869 0.284791
vt 0.218981 0.371582
vt 0.222368 0.390451
vt 0.194915 0.339604
vt 0.178668 0.319795
vt 0.179182 0.396355
vt 0.185762 0.414698
vt 0.169231 0.351380
vt 0.163537 0.333109
vt 0.143475 0.389072
vt 0.142065 0.416900
vt 0.143459 0.348958
vt 0.144288 0.326587
vt 0.113753 0.372966
vt 0.102489 0.403067
vt 0.121363 0.332914
vt 0.127475 0.309858
vt 0.084214 0.353284
vt 0.064062 0.372878
vt 0.103966 0.311133
vt 0.121473 0.291507
vt 0.060121 0.313511
vt 0.037252 0.319932
vt 0.094413 0.289019
vt 0.118895 0.272973
vt 0.056359 0.253544
vt 0.040448 0.248599
vt 0.095397 0.258284
vt 0.118577 0.249927
vt 0.090517 0.189035
vt 0.076635 0.180732
vt 0.108810 0.213157
vt 0.126120 0.216866
vt 0.123741 0.148871
vt 0.111435 0.136199
vt 0.136572 0.170982
vt 0.145926 0.177198
vt 0.148191 0.120880
vt 0.136418 0.108566
vt 0.159218 0.141450
vt 0.164691 0.142216
vt 0.162245 0.102242
vt 0.153042 0.087715
vt 0.179233 0.111245
vt 0.183231 0.112901
vt 0.179273 0.073268
vt 0.174489 0.059957
vt 0.190967 0.089257
vt 0.198028 0.087451
vt 0.210035 0.043935
vt 0.202908 0.038430
vt 0.216083 0.052280
vt 0.217467 0.058078
vt 0.785473 0.912863
vt 0.765482 0.912863
vt 0.766409 0.891787
vt 0.784575 0.891786
vt 0.767020 0.841269
vt 0.783954 0.841268
vt 0.767458 0.773595
vt 0.783498 0.773592
vt 0.767914 0.728468
vt 0.783056 0.728466
vt 0.768098 0.693496
vt 0.782880 0.693496
vt 0.768138 0.658648
vt 0.782839 0.658648
vt 0.768142 0.625257
vt 0.782834 0.625257
vt 0.768142 0.586341
vt 0.782834 0.586341
vt 0.768141 0.539085
vt 0.782834 0.539085
vt 0.768141 0.482234
vt 0.782834 0.482234
vt 0.884988 0.861403
vt 0.870295 0.861403
vt 0.871093 0.800172
vt 0.884190 0.800172
vt 0.872073 0.755185
vt 0.883211 0.755185
vt 0.872905 0.725539
vt 0.882378 0.725540
vt 0.873559 0.704318
vt 0.881724 0.704318
vt 0.874503 0.676405
vt 0.880768 0.676405
vt 0.875863 0.648049
vt 0.879413 0.648049
vt 0.880819 0.640843
vt 0.874451 0.640842
vt 0.859967 0.743609
vt 0.859874 0.751814
vt 0.853506 0.751813
vt 0.853425 0.743607
vt 0.858569 0.738877
vt 0.854841 0.738878
vt 0.853375 0.710854
vt 0.859956 0.710853
vt 0.852429 0.687427
vt 0.860911 0.687428
vt 0.851903 0.659817
vt 0.861488 0.659818
vt 0.851115 0.628220
vt 0.862279 0.628220
vt 0.850147 0.592929
vt 0.863246 0.592928
vt 0.849350 0.565932
vt 0.864043 0.565932
vt 0.849350 0.547581
vt 0.864043 0.547581
vt 0.849350 0.532682
vt 0.864043 0.532682
vt 0.849350 0.517309
vt 0.864043 0.517309
vt 0.849350 0.498421
vt 0.864043 0.498421
vt 0.849348 0.482234
vt 0.864044 0.482234
vt 0.736630 0.832671
vt 0.721934 0.832671
vt 0.721902 0.816620
vt 0.736647 0.816621
vt 0.721737 0.787801
vt 0.736809 0.787804
vt 0.721484 0.743521
vt 0.737069 0.743522
vt 0.720789 0.691780
vt 0.737769 0.691781
vt 0.719837 0.637971
vt 0.738699 0.637971
vn -0.3943 0.2458 0.8855
vn -0.9412 0.2781 0.1916
vn -0.8383 0.4978 0.2222
vn -0.1598 0.2366 0.9584
vn 0.5504 -0.1525 0.8209
vn 0.6311 -0.3190 0.7070
vn 0.8984 -0.3616 0.2492
vn 0.8381 -0.4971 0.2247
vn -0.5148 0.0579 0.8554
vn -0.9858 0.0553 0.1586
vn 0.4885 -0.0380 0.8717
vn 0.9349 -0.1638 0.3149
vn -0.6176 0.1559 0.7709
vn -0.9610 0.2410 0.1359
vn 0.3998 -0.0680 0.9141
vn 0.9157 -0.1657 0.3660
vn -0.4598 0.3591 0.8122
vn -0.7179 0.6456 0.2604
vn 0.2612 -0.1966 0.9450
vn 0.7785 -0.4702 0.4158
vn -0.0816 0.5192 0.8507
vn -0.2735 0.9043 0.3279
vn 0.0578 -0.3627 0.9301
vn 0.1271 -0.9143 0.3846
vn 0.1222 0.3948 0.9106
vn 0.1395 0.9065 0.3985
vn -0.1200 -0.3285 0.9368
vn -0.5052 -0.8037 0.3144
vn 0.1675 0.3025 0.9383
vn 0.4294 0.8010 0.4171
vn -0.2671 -0.2717 0.9246
vn -0.8326 -0.4800 0.2763
vn 0.2866 0.2610 0.9218
vn 0.7077 0.5915 0.3865
vn -0.2996 -0.1740 0.9381
vn -0.9172 -0.2270 0.3275
vn 0.4138 0.1185 0.9026
vn 0.9141 0.2105 0.3466
vn -0.3140 -0.0737 0.9465
vn -0.9233 -0.0803 0.3757
vn 0.4863 -0.1486 0.8611
vn 0.9215 -0.2587 0.2897
vn -0.3867 0.0118 0.9221
vn -0.9265 0.1033 0.3619
vn 0.3467 -0.3080 0.8860
vn 0.7857 -0.5305 0.3182
vn -0.4219 0.1001 0.9011
vn -0.8910 0.3114 0.3303
vn 0.2432 -0.3132 0.9180
vn 0.6976 -0.6114 0.3736
vn -0.4867 0.2145 0.8468
vn -0.8547 0.4461 0.2653
vn 0.2130 -0.2974 0.9307
vn 0.6803 -0.6082 0.4090
vn -0.5565 0.3062 0.7724
vn -0.8444 0.5116 0.1590
vn 0.2257 -0.2976 0.9276
vn 0.7068 -0.5686 0.4208
vn -0.5551 0.2272 0.8001
vn -0.8496 0.5094 0.1367
vn 0.1714 -0.3443 0.9231
vn 0.5961 -0.6791 0.4283
vn -0.5287 0.1365 0.8378
vn -0.8439 0.5020 0.1896
vn -0.4820 -0.6157 0.6234
vn 0.0244 -0.8776 0.4787
vn -0.7588 -0.2949 0.5808
vn -0.9275 0.1848 0.3248
vn -0.3958 0.2427 -0.8857
vn -0.1656 0.2339 -0.9581
vn -0.8379 0.4973 -0.2250
vn -0.9408 0.2778 -0.1941
vn 0.5451 -0.1529 -0.8243
vn 0.6265 -0.3193 -0.7111
vn 0.8976 -0.3616 -0.2520
vn 0.8374 -0.4969 -0.2279
vn -0.5163 0.0579 -0.8545
vn -0.9854 0.0552 -0.1609
vn 0.4823 -0.0377 -0.8752
vn 0.9339 -0.1637 -0.3178
vn -0.6211 0.1515 -0.7689
vn -0.9609 0.2403 -0.1372
vn 0.3932 -0.0702 -0.9168
vn 0.9146 -0.1659 -0.3689
vn -0.4611 0.3554 -0.8131
vn -0.7180 0.6455 -0.2604
vn 0.2553 -0.2014 -0.9457
vn 0.7769 -0.4712 -0.4175
vn -0.0817 0.5192 -0.8507
vn -0.2735 0.9043 -0.3279
vn 0.0571 -0.3631 -0.9300
vn 0.1266 -0.9143 -0.3848
vn 0.1222 0.3948 -0.9106
vn 0.1395 0.9065 -0.3985
vn -0.1200 -0.3285 -0.9368
vn -0.5052 -0.8037 -0.3144
vn 0.1675 0.3025 -0.9383
vn 0.4294 0.8010 -0.4171
vn -0.2671 -0.2717 -0.9246
vn -0.8326 -0.4800 -0.2763
vn 0.2866 0.2610 -0.9218
vn 0.7077 0.5915 -0.3865
vn -0.2996 -0.1740 -0.9381
vn -0.9172 -0.2270 -0.3275
vn 0.4138 0.1185 -0.9026
vn 0.9141 0.2105 -0.3466
vn -0.3140 -0.0737 -0.9465
vn -0.9233 -0.0803 -0.3757
vn 0.4863 -0.1486 -0.8611
vn 0.9215 -0.2587 -0.2897
vn -0.3867 0.0118 -0.9221
vn -0.9265 0.1032 -0.3619
vn 0.3466 -0.3080 -0.8860
vn 0.7856 -0.5306 -0.3182
vn -0.4220 0.1000 -0.9011
vn -0.8910 0.3114 -0.3303
vn 0.2428 -0.3133 -0.9181
vn 0.6976 -0.6114 -0.3736
vn -0.4869 0.2142 -0.8468
vn -0.8548 0.4460 -0.2653
vn 0.2113 -0.2976 -0.9310
vn 0.6801 -0.6084 -0.4091
vn -0.5572 0.3057 -0.7721
vn -0.8445 0.5114 -0.1591
vn 0.2231 -0.2972 -0.9284
vn 0.7064 -0.5688 -0.4213
vn -0.5566 0.2270 -0.7992
vn -0.8496 0.5092 -0.1373
vn 0.1697 -0.3430 -0.9239
vn 0.5958 -0.6789 -0.4291
vn -0.5291 0.1369 -0.8375
vn -0.8437 0.5018 -0.1907
vn -0.4825 -0.6149 -0.6238
vn 0.0242 -0.8773 -0.4793
vn -0.7589 -0.2945 -0.5808
vn -0.9270 0.1847 -0.3263
usemtl 1053
s 1
f 6/1/1 5/2/2 1/3/3
f 1/3/3 2/4/4 6/1/1
f 7/5/5 6/1/1 2/4/4
f 2/4/4 3/6/6 7/5/5
f 8/7/7 7/5/5 3/6/6
f 3/6/6 4/8/8 8/7/7
f 10/9/9 9/10/10 5/2/2
f 5/2/2 6/1/1 10/9/9
f 11/11/11 10/9/9 6/1/1
f 6/1/1 7/5/5 11/11/11
f 12/12/12 11/11/11 7/5/5
f 7/5/5 8/7/7 12/12/12
f 14/13/13 13/14/14 9/10/10
f 9/10/10 10/9/9 14/13/13
f 15/15/15 14/13/13 10/9/9
f 10/9/9 11/11/11 15/15/15
f 16/16/16 15/15/15 11/11/11
f 11/11/11 12/12/12 16/16/16
f 18/17/17 17/18/18 13/14/14
f 13/14/14 14/13/13 18/17/17
f 19/19/19 18/17/17 14/13/13
f 14/13/13 15/15/15 19/19/19
f 20/20/20 19/19/19 15/15/15
f 15/15/15 16/16/16 20/20/20
f 22/21/21 21/22/22 17/18/18
f 17/18/18 18/17/17 22/21/21
f 23/23/23 22/21/21 18/17/17
f 18/17/17 19/19/19 23/23/23
f 24/24/24 23/23/23 19/19/19
f 19/19/19 20/20/20 24/24/24
f 26/25/25 25/26/26 21/22/22
f 21/22/22 22/21/21 26/25/25
f 27/27/27 26/25/25 22/21/21
f 22/21/21 23/23/23 27/27/27
f 28/28/28 27/27/27 23/23/23
f 23/23/23 24/24/24 28/28/28
f 30/29/29 29/30/30 25/26/26
f 25/26/26 26/25/25 30/29/29
f 31/31/31 30/29/29 26/25/25
f 26/25/25 27/27/27 31/31/31
f 32/32/32 31/31/31 27/27/27
f 27/27/27 28/28/28 32/32/32
f 34/33/33 33/34/34 29/30/30
f 29/30/30 30/29/29 34/33/33
f 35/35/35 34/33/33 30/29/29
f 30/29/29 31/31/31 35/35/35
f 36/36/36 35/35/35 31/31/31
f 31/31/31 32/32/32 36/36/36
f 38/37/37 37/38/38 33/34/34
f 33/34/34 34/33/33 38/37/37
f 35/35/35 39/39/39 38/37/37
f 38/37/37 34/33/33 35/35/35
f 40/40/40 39/39/39 35/35/35
f 35/35/35 36/36/36 40/40/40
f 42/41/41 41/42/42 37/38/38
f 37/38/38 38/37/37 42/41/41
f 43/43/43 42/41/41 38/37/37
f 38/37/37 39/39/39 43/43/43
f 44/44/44 43/43/43 39/39/39
f 39/39/39 40/40/40 44/44/44
f 46/45/45 45/46/46 41/42/42
f 41/42/42 42/41/41 46/45/45
f 47/47/47 46/45/45 42/41/41
f 42/41/41 43/43/43 47/47/47
f 48/48/48 47/47/47 43/43/43
f 43/43/43 44/44/44 48/48/48
f 50/49/49 49/50/50 45/46/46
f 45/46/46 46/45/45 50/49/49
f 51/51/51 50/49/49 46/45/45
f 46/45/45 47/47/47 51/51/51
f 52/52/52 51/51/51 47/47/47
f 47/47/47 48/48/48 52/52/52
f 54/53/53 53/54/54 49/50/50
f 49/50/50 50/49/49 54/53/53
f 55/55/55 54/53/53 50/49/49
f 50/49/49 51/51/51 55/55/55
f 56/56/56 55/55/55 51/51/51
f 51/51/51 52/52/52 56/56/56
f 58/57/57 57/58/58 53/54/54
f 53/54/54 54/53/53 58/57/57
f 59/59/59 58/57/57 54/53/53
f 54/53/53 55/55/55 59/59/59
f 60/60/60 59/59/59 55/55/55
f 55/55/55 56/56/56 60/60/60
f 62/61/61 61/62/62 57/58/58
f 57/58/58 58/57/57 62/61/61
f 63/63/63 62/61/61 58/57/57
f 58/57/57 59/59/59 63/63/63
f 64/64/64 63/63/63 59/59/59
f 59/59/59 60/60/60 64/64/64
f 66/65/65 65/66/66 61/62/62
f 61/62/62 62/61/61 66/65/65
f 67/67/67 66/65/65 62/61/61
f 62/61/61 63/63/63 67/67/67
f 68/68/68 67/67/67 63/63/63
f 63/63/63 64/64/64 68/68/68
f 74/69/69 70/70/70 69/71/71
f 69/71/71 73/72/72 74/69/69
f 75/73/73 71/74/74 70/70/70
f 70/70/70 74/69/69 75/73/73
f 76/75/75 72/76/76 71/74/74
f 71/74/74 75/73/73 76/75/75
f 78/77/77 74/69/69 73/72/72
f 73/72/72 77/78/78 78/77/77
f 79/79/79 75/73/73 74/69/69
f 74/69/69 78/77/77 79/79/79
f 80/80/80 76/75/75 75/73/73
f 75/73/73 79/79/79 80/80/80
f 82/81/81 78/77/77 77/78/78
f 77/78/78 81/82/82 82/81/81
f 83/83/83 79/79/79 78/77/77
f 78/77/77 82/81/81 83/83/83
f 84/84/84 80/80/80 79/79/79
f 79/79/79 83/83/83 84/84/84
f 86/85/85 82/81/81 81/82/82
f 81/82/82 85/86/86 86/85/85
f 87/87/87 83/83/83 82/81/81
f 82/81/81 86/85/85 87/87/87
f 88/88/88 84/84/84 83/83/83
f 83/83/83 87/87/87 88/88/88
f 90/89/89 86/85/85 85/86/86
f 85/86/86 89/90/90 90/89/89
f 91/91/91 87/87/87 86/85/85
f 86/85/85 90/89/89 91/91/91
f 92/92/92 88/88/88 87/87/87
f 87/87/87 91/91/91 92/92/92
f 94/93/93 90/89/89 89/90/90
f 89/90/90 93/94/94 94/93/93
f 95/95/95 91/91/91 90/89/89
f 90/89/89 94/93/93 95/95/95
f 96/96/96 92/92/92 91/91/91
f 91/91/91 95/95/95 96/96/96
f 98/97/97 94/93/93 93/94/94
f 93/94/94 97/98/98 98/97/97
f 99/99/99 95/95/95 94/93/93
f 94/93/93 98/97/97 99/99/99
f 100/100/100 96/96/96 95/95/95
f 95/95/95 99/99/99 100/100/100
f 102/101/101 98/97/97 97/98/98
f 97/98/98 101/102/102 102/101/101
f 103/103/103 99/99/99 98/97/97
f 98/97/97 102/101/101 103/103/103
f 104/104/104 100/100/100 99/99/99
f 99/99/99 103/103/103 104/104/104
f 106/105/105 102/101/101 101/102/102
f 101/102/102 105/106/106 106/105/105
f 103/103/103 102/101/101 106/105/105
f 106/105/105 107/107/107 103/103/103
f 108/108/108 104/104/104 103/103/103
f 103/103/103 107/107/107 108/108/108
f 110/109/109 106/105/105 105/106/106
f 105/106/106 109/110/110 110/109/109
f 111/111/111 107/107/107 106/105/105
f 106/105/105 110/109/109 111/111/111
f 112/112/112 108/108/108 107/107/107
f 107/107/107 111/111/111 112/112/112
f 114/113/113 110/109/109 109/110/110
f 109/110/110 113/114/114 114/113/113
f 115/115/115 111/111/111 110/109/109
f 110/109/109 114/113/113 115/115/115
f 116/116/116 112/112/112 111/111/111
f 111/111/111 115/115/115 116/116/116
f 118/117/117 114/113/113 113/114/114
f 113/114/114 117/118/118 118/117/117
f 119/119/119 115/115/115 114/113/113
f 114/113/113 118/117/117 119/119/119
f 120/120/120 116/116/116 115/115/115
f 115/115/115 119/119/119 120/120/120
f 122/121/121 118/117/117 117/118/118
f 117/118/118 121/122/122 122/121/121
f 123/123/123 119/119/119 118/117/117
f 118/117/117 122/121/121 123/123/123
f 124/124/124 120/120/120 119/119/119
f 119/119/119 123/123/123 124/124/124
f 126/125/125 122/121/121 121/122/122
f 121/122/122 125/126/126 126/125/125
f 127/127/127 123/123/123 122/121/121
f 122/121/121 126/125/125 127/127/127
f 128/128/128 124/124/124 123/123/123
f 123/123/123 127/127/127 128/128/128
f 130/129/129 126/125/125 125/126/126
f 125/126/126 129/130/130 130/129/129
f 131/131/131 127/127/127 126/125/125
f 126/125/125 130/129/129 131/131/131
f 132/132/132 128/128/128 127/127/127
f 127/127/127 131/131/131 132/132/132
f 134/133/133 130/129/129 129/130/130
f 129/130/130 133/134/134 134/133/133
f 135/135/135 131/131/131 130/129/129
f 130/129/129 134/133/133 135/135/135
f 136/136/136 132/132/132 131/131/131
f 131/131/131 135/135/135 136/136/136
f 69/137/71 1/138/3 5/139/2
f 5/139/2 73/140/72 69/137/71
f 73/140/72 5/139/2 9/141/10
f 9/141/10 77/142/78 73/140/72
f 77/142/78 9/141/10 13/143/14
f 13/143/14 81/144/82 77/142/78
f 81/144/82 13/143/14 17/145/18
f 17/145/18 85/146/86 81/144/82
f 85/146/86 17/145/18 21/147/22
f 21/147/22 89/148/90 85/146/86
f 89/148/90 21/147/22 25/149/26
f 25/149/26 93/150/94 89/148/90
f 93/150/94 25/149/26 29/151/30
f 29/151/30 97/152/98 93/150/94
f 97/152/98 29/151/30 33/153/34
f 33/153/34 101/154/102 97/152/98
f 101/154/102 33/153/34 37/155/38
f 37/155/38 105/156/106 101/154/102
f 105/156/106 37/155/38 41/157/42
f 41/157/42 109/158/110 105/156/106
f 109/159/110 41/160/42 45/161/46
f 45/161/46 113/162/114 109/159/110
f 113/162/114 45/161/46 49/163/50
f 49/163/50 117/164/118 113/162/114
f 117/164/118 49/163/50 53/165/54
f 53/165/54 121/166/122 117/164/118
f 121/166/122 53/165/54 57/167/58
f 57/167/58 125/168/126 121/166/122
f 125/168/126 57/167/58 61/169/62
f 61/169/62 129/170/130 125/168/126
f 129/170/130 61/169/62 65/171/66
f 65/171/66 133/172/134 129/170/130
f 134/173/133 133/172/134 65/171/66
f 65/171/66 66/174/65 134/173/133
f 135/175/135 134/176/133 66/177/65
f 66/177/65 67/178/67 135/175/135
f 136/179/136 135/175/135 67/178/67
f 67/178/67 68/180/68 136/179/136
f 136/179/136 68/180/68 64/181/64
f 64/181/64 132/182/132 136/179/136
f 132/182/132 64/181/64 60/183/60
f 60/183/60 128/184/128 132/182/132
f 128/184/128 60/183/60 56/185/56
f 56/185/56 124/186/124 128/184/128
f 124/186/124 56/185/56 52/187/52
f 52/187/52 120/188/120 124/186/124
f 120/188/120 52/187/52 48/189/48
f 48/189/48 116/190/116 120/188/120
f 116/190/116 48/189/48 44/191/44
f 44/191/44 112/192/112 116/190/116
f 112/192/112 44/191/44 40/193/40
f 40/193/40 108/194/108 112/192/112
f 108/194/108 40/193/40 36/195/36
f 36/195/36 104/196/104 108/194/108
f 104/196/104 36/195/36 32/197/32
f 32/197/32 100/198/100 104/196/104
f 100/198/100 32/197/32 28/199/28
f 28/199/28 96/200/96 100/198/100
f 96/200/96 28/199/28 24/201/24
f 24/201/24 92/202/92 96/200/96
f 92/203/92 24/204/24 20/205/20
f 20/205/20 88/206/88 92/203/92
f 88/206/88 20/205/20 16/207/16
f 16/207/16 84/208/84 88/206/88
f 84/208/84 16/207/16 12/209/12
f 12/209/12 80/210/80 84/208/84
f 80/210/80 12/209/12 8/211/7
f 8/211/7 76/212/75 80/210/80
f 76/212/75 8/211/7 4/213/8
f 4/213/8 72/214/76 76/212/75
